<svg width="46" height="70" viewBox="0 0 46 70" fill="none" xmlns="http://www.w3.org/2000/svg">
<path fill-rule="evenodd" clip-rule="evenodd" d="M23 0C10.5736 0 0.5 10.0736 0.5 22.5V47.5C0.5 59.9264 10.5736 70 23 70C35.4264 70 45.5 59.9264 45.5 47.5V22.5C45.5 10.0736 35.4264 0 23 0ZM24.5 25C24.5 24.1716 23.8284 23.5 23 23.5C22.1716 23.5 21.5 24.1716 21.5 25V41.3787L16.5607 36.4393C15.9749 35.8536 15.0251 35.8536 14.4393 36.4393C13.8536 37.0251 13.8536 37.9749 14.4393 38.5607L21.9393 46.0607C22.5251 46.6464 23.4749 46.6464 24.0607 46.0607L31.5607 38.5607C32.1464 37.9749 32.1464 37.0251 31.5607 36.4393C30.9749 35.8536 30.0251 35.8536 29.4393 36.4393L24.5 41.3787V25Z" fill="white"/>
</svg>
