<svg width="154" height="38" viewBox="0 0 154 38" fill="none" xmlns="http://www.w3.org/2000/svg">
<rect y="0.709106" width="27.9743" height="36.5817" rx="13.9871" fill="white"/>
<rect x="-0.268983" y="0.268983" width="1.6139" height="2.68983" rx="0.80695" transform="matrix(-1 0 0 1 10.2213 15.2343)" fill="black" stroke="black" stroke-width="0.537967"/>
<rect x="-0.268983" y="0.268983" width="1.6139" height="2.68983" rx="0.80695" transform="matrix(-1 0 0 1 18.8292 15.2343)" fill="black" stroke="black" stroke-width="0.537967"/>
<path d="M14.6387 18.1715C14.8809 17.6871 14.5287 17.1172 13.9872 17.1172C13.4456 17.1172 13.0934 17.6871 13.3356 18.1715L13.4492 18.3987C13.5511 18.6024 13.7594 18.7311 13.9872 18.7311C14.215 18.7311 14.4233 18.6024 14.5251 18.3987L14.6387 18.1715Z" fill="black" stroke="black" stroke-width="0.537967"/>
<path d="M13.9874 18.4622C13.9874 19.502 13.1444 20.345 12.1045 20.345" stroke="black" stroke-width="1.07593" stroke-linecap="round"/>
<path d="M15.8702 20.345C14.8303 20.345 13.9873 19.502 13.9873 18.4622" stroke="black" stroke-width="1.07593" stroke-linecap="round"/>
<path d="M15.8703 20.345C15.8703 21.8305 15.0273 22.7658 13.9874 22.7658C12.9475 22.7658 12.1045 21.8305 12.1045 20.345" stroke="black" stroke-width="1.07593" stroke-linecap="round"/>
<path d="M42.4569 29L36.5537 8.93467H42.4292L45.256 21.4894H45.4223L48.7204 8.93467H53.3764L56.7021 21.5448H56.8684L59.6953 8.93467H65.5708L59.6676 29H54.5958L51.1315 17.5262H50.9652L47.5009 29H42.4569ZM86.2658 18.9673C86.2658 25.6465 81.9978 29.2771 76.5657 29.2771C71.0782 29.2771 66.8379 25.6188 66.8379 18.9673C66.8379 12.2881 71.0782 8.65752 76.5657 8.65752C81.9978 8.65752 86.2658 12.2881 86.2658 18.9673ZM80.8338 18.9673C80.8338 15.2813 79.3095 13.2581 76.5657 13.2581C73.7943 13.2581 72.27 15.2813 72.27 18.9673C72.27 22.6534 73.7943 24.6765 76.5657 24.6765C79.3095 24.6765 80.8338 22.6534 80.8338 18.9673ZM106.961 8.93467V29H102.554L95.099 18.1636H94.9604V29H89.6947V8.93467H94.1844L101.529 19.7156H101.695V8.93467H106.961ZM110.528 29V8.93467H115.794V16.8333H123.194V8.93467H128.487V29H123.194V21.1014H115.794V29H110.528ZM151.316 18.9673C151.316 25.6465 147.048 29.2771 141.616 29.2771C136.129 29.2771 131.888 25.6188 131.888 18.9673C131.888 12.2881 136.129 8.65752 141.616 8.65752C147.048 8.65752 151.316 12.2881 151.316 18.9673ZM145.884 18.9673C145.884 15.2813 144.36 13.2581 141.616 13.2581C138.845 13.2581 137.32 15.2813 137.32 18.9673C137.32 22.6534 138.845 24.6765 141.616 24.6765C144.36 24.6765 145.884 22.6534 145.884 18.9673Z" fill="white"/>
</svg>
