<svg width="161" height="121" viewBox="0 0 161 121" fill="none" xmlns="http://www.w3.org/2000/svg">
<rect x="-4.0168" y="4.0168" width="24.1008" height="40.168" rx="12.0504" transform="matrix(-1 0 0 1 24.1012 0)" fill="black" stroke="black" stroke-width="8.03361"/>
<rect x="-4.0168" y="4.0168" width="24.1008" height="40.168" rx="12.0504" transform="matrix(-1 0 0 1 152.645 0)" fill="black" stroke="black" stroke-width="8.03361"/>
<path d="M108.456 76.3208C92.9266 76.3208 80.3379 63.7321 80.3379 48.2031" stroke="black" stroke-width="16.0672" stroke-linecap="round"/>
<path d="M108.459 76.3195C108.459 98.5037 95.8702 112.471 80.3413 112.471C64.8123 112.471 52.2236 98.5037 52.2236 76.3195" stroke="black" stroke-width="16.0672" stroke-linecap="round"/>
<path d="M80.3403 48.2031C80.3403 63.7321 67.7516 76.3208 52.2227 76.3208" stroke="black" stroke-width="16.0672" stroke-linecap="round"/>
<path d="M70.6068 43.8626L72.3031 47.2551C73.8245 50.298 76.9346 52.2202 80.3367 52.2202C83.7387 52.2202 86.8488 50.298 88.3703 47.2551L90.0665 43.8626C93.683 36.6296 88.4234 28.1193 80.3367 28.1193C72.2499 28.1193 66.9903 36.6296 70.6068 43.8626Z" fill="black" stroke="black" stroke-width="8.03361"/>
</svg>
