<svg width="181" height="48" viewBox="0 0 181 48" fill="none" xmlns="http://www.w3.org/2000/svg">
<path fill-rule="evenodd" clip-rule="evenodd" d="M180.5 0H0.5V48H180.5V0ZM155.781 38.0625C163.438 38.0625 169.453 32.9453 169.453 23.5312C169.453 14.1172 163.438 9 155.781 9C148.047 9 142.07 14.1172 142.07 23.5312C142.07 32.9062 148.047 38.0625 155.781 38.0625ZM155.781 15.4844C159.648 15.4844 161.797 18.3359 161.797 23.5312C161.797 28.7266 159.648 31.5781 155.781 31.5781C151.875 31.5781 149.727 28.7266 149.727 23.5312C149.727 18.3359 151.875 15.4844 155.781 15.4844ZM113.164 37.6719V9.39062H120.586V20.5234H131.016V9.39062H138.477V37.6719H131.016V26.5391H120.586V37.6719H113.164ZM109.336 37.6719V9.39062H101.914V24.5859H101.68L91.3281 9.39062H85V37.6719H92.4219V22.3984H92.6172L103.125 37.6719H109.336ZM81.3672 23.5312C81.3672 32.9453 75.3516 38.0625 67.6953 38.0625C59.9609 38.0625 53.9844 32.9062 53.9844 23.5312C53.9844 14.1172 59.9609 9 67.6953 9C75.3516 9 81.3672 14.1172 81.3672 23.5312ZM73.7109 23.5312C73.7109 18.3359 71.5625 15.4844 67.6953 15.4844C63.7891 15.4844 61.6406 18.3359 61.6406 23.5312C61.6406 28.7266 63.7891 31.5781 67.6953 31.5781C71.5625 31.5781 73.7109 28.7266 73.7109 23.5312ZM12.5 9.39062L20.8203 37.6719H27.9297L32.8125 21.5H33.0469L37.9297 37.6719H45.0781L53.3984 9.39062H45.1172L41.1328 27.1641H40.8984L36.2109 9.39062H29.6484L25 27.0859H24.7656L20.7812 9.39062H12.5Z" fill="white"/>
</svg>
